<?xml version="1.0" encoding="utf-8"?>
<!-- Generator: Adobe Illustrator 26.0.1, SVG Export Plug-In . SVG Version: 6.00 Build 0)  -->
<svg version="1.1" id="Layer_1" xmlns="http://www.w3.org/2000/svg" xmlns:xlink="http://www.w3.org/1999/xlink" x="0px" y="0px"
	 viewBox="0 0 1080 546.9" style="enable-background:new 0 0 1080 546.9;" xml:space="preserve">
<style type="text/css">
	.st0{fill:#FFFFFF;}
</style>
<g>
	<path class="st0" d="M396,66.9c-0.9-0.6-1.9-1.1-3-1.2c-4.1-0.7-12.4,0.7-22.2,17.7c-11.8,20.4-22.5,57.6-31.7,110.4
		c-5.7,0.5-11.4,1.6-17,3.2c-4.1-8.1-12.8-25.4-22.3-42.1c-7.8-13.8-14.6-24.7-20.2-32.4c-9.5-13-16.1-17.4-22.8-15.1
		c-4,1.3-9.9,5.6-14.2,26.6c-6.4,31-6.7,86.6,18.4,114.4c-0.4,0.9-0.8,1.7-1.2,2.6c-2.7,5.8-5.3,11.2-9,15.5
		c-5.5,6.2-13.6,10.8-21.4,15.3c-1.6,0.9-3.2,1.8-4.7,2.7c-8.6,5-15.5,8.8-23.4,12c-5.2,2.1-12.6,5.8-16.5,13.2
		c-6.9,13.1,0.3,23.8,6.3,30.7c3.6,4.2,6.9,9.1,10,13.8c9.3,13.9,19.8,29.7,41.6,29.7c2.3,0,4.7-0.2,7.1-0.5c0.2,0,0.4-0.1,0.6-0.1
		c16.5-3.8,28-7.5,37.4-10.8c1.8,4.7,4,12.1,2.8,19.4c0,0.1,0,0.1,0,0.1l0,0.2c-0.1,0.6-1.7,15.9,5.2,35.8c6.4,18.1,21.4,44,57,64
		c1.1,0.6,2.3,0.9,3.6,0.9c1.5,0,2.9-0.5,4.2-1.3c0.7-0.5,18.2-12.7,36.7-35.8c17-21.1,38.1-55.7,42.1-100.5
		c11.9-43-10.5-97.4-15.9-109.3C443.1,102.2,397.9,68.3,396,66.9z M333.1,403.9c4.2,0,8.4-0.1,12.4-0.4
		c29.8-2.2,55.9-12.3,75.9-29.5c-7.1,31.8-23.1,56.7-35.6,72.3c-12.4,15.5-24.6,25.9-30.3,30.5c-23-13.8-38.5-31.7-46.1-53.2
		c-3.1-8.7-4.3-16.3-4.6-21.8C311.7,402.7,321.5,403.9,333.1,403.9z M423.6,351.2c-18.9,22.5-45.4,35.2-78.8,37.7
		c-17,1.3-31.5-0.6-39.6-2c-0.1-7.5-2-14.3-3.9-19.4c9.8-3.2,17.4-4.6,28.7-3.6c1.9,0.2,3.8-0.4,5.3-1.7c1.5-1.3,2.4-3,2.6-4.9
		c0.2-1.9-0.4-3.8-1.7-5.3c-1.2-1.5-3-2.4-4.9-2.6c-18.1-1.6-28.3,2-43.6,7.4c-9.8,3.4-22,7.7-40.6,12c-15.4,2.2-22.6-5.7-31.6-19
		c6.7-1.5,12.2-6.5,16.4-14.7c0.9-1.7,1-3.7,0.5-5.5c-0.6-1.8-1.9-3.4-3.6-4.2c-3.6-1.8-8-0.4-9.8,3.1c-2.3,4.4-4.8,7-7.2,7.3
		c-3.6,0.5-8.3-3.3-10-5.1c-6.9-8-6-11.4-4.4-14.4c1.3-2.4,4.2-4.5,9.1-6.5c8.7-3.5,16.4-7.7,25.3-12.9c1.5-0.9,3-1.7,4.6-2.6
		c8.9-5.1,18.1-10.3,25.2-18.4c5.1-5.8,8.2-12.4,11.2-18.9c1.6-3.4,3.1-6.6,4.8-9.5c4.6-7.7,11.7-15.6,20.1-22.3
		c16.5-12.9,37.5-19.1,57.6-17c4,0.4,7.6-2.5,8-6.5c0.4-4-2.5-7.6-6.5-8c-1-0.1-2-0.2-3.1-0.3c15.4-86.1,31-107.2,36.4-112.1
		c4,4.6,11.5,15.4,16.9,36.3c7.4,28.4,12.3,81.2-6.2,171.7c-0.4,1.9,0,3.8,1.1,5.5c1.1,1.6,2.7,2.7,4.6,3.1c3.9,0.8,7.8-1.8,8.6-5.7
		c1.2-5.9,2.3-11.8,3.4-17.6c6.3,19.9,13.2,50.1,7,74.8C424.8,350,424.1,350.6,423.6,351.2z M288.8,213.7
		c-8,6.2-14.9,13.4-20.2,20.9c-11.1-15.4-16.5-41.8-14.9-73.1c1.1-20.7,4.8-33.7,7.2-38.8c3.6,3.4,11.8,13.4,27.9,42.3
		c8,14.3,15.3,28.5,19.4,36.8C301.4,205.1,294.8,209.1,288.8,213.7z"/>
	<path class="st0" d="M591.6,268.5c-0.3-4.6-4-8.1-8.4-8.1c-2.3,0-4.7,1.1-6.3,2.8c-1.5,1.6-2.2,3.6-2.1,5.6
		c0.8,10.4,1.1,21.6,0.9,34.3c-0.1,11.1-0.7,20.8-1.7,29.6c-0.1,1.2-0.3,2.3-0.4,3.4l-0.1,0.6c-0.1,0.7-0.2,1.5-0.3,2.2
		c-0.4,2.4-0.8,4.6-1.3,6.7c-1,4.6-2.1,8.3-3.4,11.7c0,0.1-0.2,0.4-0.3,0.6c0,0.1-0.1,0.2-0.1,0.2c0,0,0,0,0,0l0,0c0,0,0,0,0,0
		l-0.2,0.3c-0.4,0.9-0.8,1.7-1.3,2.4c-0.4,0.6-0.8,1.3-1.2,1.9c-0.1,0.2-0.2,0.3-0.3,0.4l-0.2,0.2c-0.5,0.5-0.9,1-1.4,1.4l0.3,0.4
		l-0.1,0l-0.3-0.3l0.3,0.4l-0.2,0l-0.2-0.3c0,0,0.1-0.1,0.1-0.1l-0.1,0.1l0,0c-0.2,0.1-0.4,0.2-0.6,0.3l-0.5,0.2
		c-0.2,0-0.4,0.1-0.6,0.2h0c-0.2,0-0.5,0-0.7,0l0,0c-0.4-0.1-0.8-0.3-1.2-0.4c-0.1-0.1-0.2-0.1-0.4-0.2l-0.5-0.3
		c-0.5-0.5-1-0.9-1.5-1.5c-0.1-0.1-0.2-0.3-0.3-0.4c0,0-0.1-0.1-0.1-0.1l0,0l0,0l0,0l-0.1-0.2c-0.4-0.7-0.9-1.3-1.3-2
		c-0.4-0.7-0.8-1.4-1.1-2.1c-0.1-0.2-0.2-0.5-0.4-0.7l-0.5-1.3c-0.6-1.7-1.2-3.3-1.8-4.9c-1.2-3.8-2.2-8.1-3.1-13.1
		c-0.2-1.1-0.4-2.3-0.6-3.4l-0.9-6.1c-0.2-1.3-0.3-2.5-0.4-3.8c-0.5-4.8-0.9-9.7-1.1-15.1c-0.6-11.6-0.4-23.4-0.2-34.8l0.1-6
		c0-0.1,0-0.3,0-0.4l0-0.2c0.1-2-0.7-4-2.2-5.6c-1.6-1.7-4-2.8-6.3-2.8c-4.5,0-8.2,3.5-8.4,8.1c-0.6,11.4-0.7,23.5-0.1,37.1
		c0.5,11.9,1.4,22.5,3,32.5c1.2,7.9,3.2,18.2,7.8,27.9c2.5,5.2,8.1,14.2,18,15.9c1.3,0.2,2.5,0.3,3.8,0.3c7.4,0,14.2-4,19.1-11.3
		c5.1-7.8,7.4-17.2,8.9-25.5c1.7-9.6,2.8-19.8,3.3-32.3c0.7-16.2,0.5-30.6-0.6-44L591.6,268.5z"/>
	<path class="st0" d="M669.7,260.7c-2.7,0.7-4.7,2.8-5.4,5.6l-18.1,69.5l-18.1-69.5c-1.3-5.1-6.1-6.7-10.1-5.6
		c-4.1,1.1-7.5,4.8-6.1,9.9l26.2,100.7c1,3.8,4.2,6.1,8.1,5.9c0.1,0,0.3,0,0.4,0c3.8,0,6.8-2.3,7.7-5.9l26.2-100.7
		c0.7-2.8,0-5.6-2-7.6C676.3,260.8,672.7,259.9,669.7,260.7z"/>
	<path class="st0" d="M727.3,266.5c0-2.1-0.7-4.1-2.1-5.6c-1.5-1.7-3.7-2.6-6.2-2.6h-12.5c-5.3,0-8.1,4.1-8.2,8.1
		c-0.1,3.4,1.8,7,5.7,8.1v88.3c-3.8,1.1-5.7,4.7-5.7,8.1c0.1,4,2.9,8.1,8.2,8.1h12.5c5.4,0,8.2-4.2,8.2-8.3c0-2.1-0.7-4.1-2.1-5.6
		c-1.1-1.3-2.6-2.1-4.4-2.5v-87.9C725.1,273.8,727.3,270.1,727.3,266.5z"/>
	<path class="st0" d="M792.7,260.4h-40.6c-5.4,0-8.2,4.1-8.2,8.2c0,4,2.8,8.1,8.2,8.1h11.1v93.7c0,5.2,4.2,7.9,8.4,7.9
		c4.2,0,8.4-2.7,8.4-7.9v-93.7h12.6c5.4,0,8.2-4.1,8.2-8.2C800.9,264.5,798.1,260.4,792.7,260.4z"/>
	<path class="st0" d="M847.8,264.9c-0.8-3.9-4.8-6.6-9-6.3c-4.2-0.4-8.2,2.4-9,6.3l-21.4,101.5c-1,4.6,1.6,9,5.9,10.2
		c0.7,0.2,1.4,0.3,2.1,0.3c1.6,0,3.2-0.5,4.6-1.3c1.9-1.2,3.2-2.9,3.6-5l8.9-42.5h10.3l8.9,42.5c0.4,2,1.7,3.8,3.6,5
		c2,1.2,4.6,1.6,6.7,1c4.3-1.2,6.9-5.6,5.9-10.2L847.8,264.9z"/>
	<path class="st0" d="M503.7,296.3c-1.3-0.7-2.9-0.9-4.3-0.4c-1.4,0.4-2.4,1.3-3,2.5l-4.8,9.8l-4.8-9.8c-0.6-1.2-1.7-2.1-3-2.5
		c-1.5-0.4-3.1-0.3-4.3,0.4c-2.5,1.4-3.3,4.4-2.1,7l8.3,17l-8.3,17c-1.3,2.6-0.4,5.6,2.1,7c0.8,0.4,1.7,0.7,2.7,0.7
		c0.6,0,1.1-0.1,1.7-0.3c1.4-0.4,2.4-1.3,3-2.5l4.8-9.8l4.8,9.8c0.6,1.2,1.7,2.1,3,2.5c1.5,0.4,3.1,0.3,4.3-0.4
		c2.5-1.4,3.3-4.4,2.1-7l-8.3-17l8.3-17C507.1,300.7,506.2,297.7,503.7,296.3z"/>
	<path class="st0" d="M900.7,320.3l8.3-17c1.3-2.6,0.4-5.6-2.1-7c-1.3-0.7-2.9-0.9-4.3-0.4c-1.4,0.4-2.4,1.3-3,2.5l-4.8,9.8
		l-4.8-9.8c-0.6-1.2-1.7-2.1-3-2.5c-1.5-0.4-3.1-0.3-4.3,0.4c-2.5,1.4-3.3,4.4-2.1,7l8.3,17l-8.3,17c-1.3,2.6-0.4,5.6,2.1,7
		c0.8,0.4,1.7,0.7,2.7,0.7c0.6,0,1.1-0.1,1.7-0.3c1.4-0.4,2.4-1.3,3-2.5l4.8-9.8l4.8,9.8c0.6,1.2,1.7,2.1,3,2.5
		c1.5,0.4,3.1,0.3,4.3-0.4c2.5-1.4,3.3-4.4,2.1-7L900.7,320.3z"/>
</g>
</svg>
